PathFileType	4	(X/Y/Z)	C:/Users/beibeiliu/ov580/test_trc/User1\sequence.18_training_dense_left.trc
DataRate	CameraRate	NumFrames	NumMarkers	Units	OrigDataRate	OrigDataStartFrame	OrigNumFrames
120	120	22	19	mm	120	144	286
Frame#	Time	ThumbCMC			ThumbMCP			ThumbIP			ThumbTip			IndexMCP			IndexPIP			IndexTip			MiddleMCP			MiddlePIP			MiddleTip			RingMCP			RingPIP			RingTip			PinkyMCP			PinkyPIP			PinkyTip			BackHand1			BackHand2			BackHand3	
		X0	Y0	Z0	X1	Y1	Z1	X2	Y2	Z2	X3	Y3	Z3	X4	Y4	Z4	X5	Y5	Z5	X6	Y6	Z6	X7	Y7	Z7	X8	Y8	Z8	X9	Y9	Z9	X10	Y10	Z10	X11	Y11	Z11	X12	Y12	Z12	X13	Y13	Z13	X14	Y14	Z14	X15	Y15	Z15	X16	Y16	Z16	X17	Y17	Z17	X18	Y18	Z18	
143	1.19167	-161.866	32.1555	28.1643	-144.269	26.9219	-5.29586	-147.1	24.2681	-35.4996	-170.623	12.974	-51.2757	-168.504	70.0109	-49.4182	-159.14	50.3736	-74.2717	-151.866	28.1313	-46.6327	-190.467	60.8495	-65.778	-175.137	32.8593	-78.254	-173.521	17.7618	-41.7018	-209.403	46.4605	-63.1299	-193.001	16.4622	-75.0491	-190.166	4.58501	-47.0502	-228.049	30.0178	-53.1066	-205.664	11.8133	-65.6525	-200.003	-5.31739	-34.7325	-224.266	50.338	-3.55298	-234.198	35.5636	27.9121	-199.589	52.3875	20.7539	
144	1.2	-159.645	24.6361	28.1674	-138.3	20.633	-5.78793	-142.939	19.0391	-36.1558	-167.071	10.124	-56.9167	-160.235	66.1089	-48.9297	-150.33	45.9192	-73.9585	-146.25	22.736	-45.4599	-182.723	60.0352	-63.6384	-171.458	32.6671	-80.9002	-170.326	13.8747	-43.5115	-200.31	47.2048	-67.1686	-191.413	20.9147	-78.067	-193.167	3.99877	-44.4151	-220.38	34.7964	-52.5091	-206.506	10.7398	-65.3373	-201.681	-4.527	-39.7164	-217.307	52.4808	-3.24343	-228.333	41.2905	28.6497	-189.58	53.4114	18.7301	
145	1.20833	-154.762	23.0335	25.6334	-137.327	14.9104	-5.12532	-141.141	14.7691	-37.3172	-162.922	8.0285	-56.7567	-153.448	61.8147	-53.2217	-148.693	42.2863	-75.6474	-145.84	17.8516	-50.6891	-177.563	57.5987	-63.5519	-169.923	29.7613	-81.4492	-169.763	9.4533	-43.6812	-196.358	49.3271	-62.7379	-190.73	18.9205	-77.7544	-191.739	5.2084	-45.4173	-218.934	37.9026	-59.0322	-207.708	12.6177	-67.7386	-204.598	-4.24407	-39.1068	-214.747	52.9426	-4.0294	-225.165	45.5008	28.0919	-184.084	51.4746	20.8495	
146	1.21667	-158.167	19.0854	25.3963	-138.661	10.2843	-4.81615	-135.047	7.77511	-34.7476	-159.715	5.37874	-54.6743	-150.787	58.6613	-52.5252	-143.868	40.3351	-76.0111	-144.24	13.1702	-46.4395	-169.576	57.1794	-63.0851	-166.852	27.4028	-81.7837	-170.082	7.2447	-48.1651	-192.187	49.4089	-66.8897	-188.251	16.2163	-77.6251	-192.122	3.51639	-50.3363	-216.168	39.4461	-56.9394	-203.933	15.8805	-67.7149	-200.591	-2.27682	-38.3594	-209.289	54.3035	-3.44844	-219.764	48.4188	26.931	-182.327	53.151	20.774	
147	1.225	-154.341	18.2124	24.0069	-134.03	5.83968	-5.14483	-139.666	7.10261	-34.7827	-158.916	2.30715	-59.3289	-143.806	56.5628	-51.1377	-142.428	36.257	-76.6946	-144.181	10.8195	-51.467	-169.442	54.7426	-65.9436	-164.411	26.669	-82.7958	-169.657	5.49505	-50.0781	-192.681	49.8582	-65.5556	-185.725	18.4327	-78.2692	-192.649	3.58311	-47.288	-215.339	42.3543	-58.1258	-202.793	14.6881	-66.5862	-201.634	-1.96593	-38.1348	-207.175	57.4707	-6.88778	-215.131	48.1412	30.4966	-174.798	50.2452	21.0327	
148	1.23333	-151.711	16.0707	26.7551	-134.69	4.5501	-7.1129	-138.673	3.37346	-35.5588	-159.905	-1.69652	-59.9129	-144.261	53.5614	-51.579	-144.669	32.8007	-77.8006	-148.074	7.30984	-49.7775	-163.99	53.4661	-64.7011	-163.031	23.0444	-82.313	-172.864	5.18184	-47.6407	-191.571	48.9805	-67.5627	-186.466	18.6118	-79.555	-188.056	3.20851	-47.5667	-212.028	42.5969	-56.7056	-202.043	15.399	-67.0742	-201.95	-1.82447	-38.275	-203.076	58.2048	-7.10706	-210.238	50.5696	31.7242	-173.023	51.6381	18.964	
149	1.24167	-152.601	15.8138	24.4817	-132.852	-1.02123	-6.18085	-138.397	-0.141554	-40.414	-164.615	-0.752591	-59.6914	-142.03	50.5834	-57.6937	-145.44	30.4809	-79.1891	-144.986	5.17601	-49.5808	-163.011	51.8039	-64.3564	-165.104	22.4814	-84.7014	-169.579	3.84447	-44.9506	-186.078	48.1368	-66.9917	-187.424	16.3061	-79.4414	-192.632	1.76284	-51.4071	-210.578	42.672	-54.7858	-205.457	17.1705	-69.611	-203.761	-1.58325	-40.1408	-201.822	59.7392	-7.01262	-211.393	52.0758	27.9398	-168.38	51.3379	19.198	
150	1.25	-151.373	16.5413	21.1234	-135.369	-0.468527	-10.7126	-138.746	-3.62642	-37.816	-163.395	-4.98884	-60.5364	-142.57	49.0238	-55.6029	-140.858	25.2283	-80.1164	-148.448	3.37237	-51.9943	-165.579	50.38	-69.2214	-167.724	18.2894	-82.3891	-171.078	2.97611	-49.9988	-183.475	46.7086	-69.5034	-187.457	15.1798	-78.9758	-191.298	2.43985	-49.0104	-211.13	43.5481	-58.2558	-204.378	14.8947	-67.2514	-203.464	-4.08977	-38.5583	-198.533	58.5178	-3.91416	-207.219	52.4793	26.8977	-167.262	52.0649	18.3291	
151	1.25833	-146.692	14.2828	21.1725	-137.761	0.0445385	-9.66539	-140.47	-2.92586	-42.3037	-166.323	-2.21898	-57.1788	-141.497	47.6535	-55.6407	-143.485	24.7152	-80.3075	-148.44	2.87348	-50.6134	-165.574	50.5707	-66.9529	-167.237	19.0778	-84.823	-171.456	3.26991	-47.3823	-185.964	46.7593	-71.1891	-187.735	15.0902	-78.5412	-192.549	2.12651	-50.7483	-206.619	43.2881	-58.3596	-205.337	15.8992	-68.4607	-205.026	-2.35717	-42.5315	-198.376	62.5313	-7.9963	-207.127	55.1656	25.9725	-168.641	52.5662	13.0808	
152	1.26667	-148.219	13.9418	21.3201	-135.959	-3.26935	-6.73337	-139.027	-4.17387	-38.5276	-163.051	-3.33063	-58.6194	-138.581	45.7739	-57.8849	-140.586	22.2137	-79.0717	-147.493	2.52789	-51.3626	-163.28	51.0022	-68.5574	-164.017	19.8131	-84.7476	-172.953	4.0818	-49.3186	-184.259	48.8964	-67.3114	-188.053	18.3884	-79.9341	-193.535	5.25362	-46.3193	-209.613	45.8908	-58.333	-202.187	17.9798	-66.6593	-204.067	1.5853	-40.1534	-197.105	60.4893	-4.64513	-202.242	55.7415	28.2483	-167.816	51.3179	16.6024	
153	1.275	-150.658	14.829	22.7766	-132.98	-1.29802	-7.39137	-140.478	1.34787	-36.9067	-160.027	-0.67175	-56.9299	-141.481	49.0362	-53.6494	-140.348	22.9224	-77.4881	-147.628	6.87198	-45.613	-158.234	52.716	-69.1157	-164.405	22.9963	-83.7013	-168.831	6.40424	-47.6731	-186.71	52.9801	-65.8467	-187.028	19.0732	-78.9233	-190.059	6.92525	-49.9372	-204.778	47.5117	-55.4652	-203.614	19.3119	-67.0495	-204.089	3.21556	-41.2245	-197.012	62.9477	-7.39774	-205.325	56.0547	30.1568	-167.654	52.2683	19.6352	
154	1.28333	-150.985	15.8224	25.0242	-131.072	2.50096	-7.04479	-135.676	6.14952	-39.43	-159.468	8.55514	-53.8933	-135.101	54.4721	-53.2879	-140.939	31.8418	-74.081	-145.066	12.3518	-46.3489	-159.645	59.2153	-63.7556	-158.737	29.1755	-81.1702	-166.334	12.1738	-43.8729	-179.143	57.2876	-60.9474	-184.67	25.4244	-76.8357	-189.354	12.4957	-47.8609	-205.204	53.5833	-52.9856	-196.658	26.388	-66.1705	-201.674	8.23899	-43.9303	-194.004	63.5926	-1.18441	-206.014	54.8801	32.6291	-165.244	51.7191	19.9915	
155	1.29167	-151.939	15.9653	31.3671	-134.548	9.91158	-2.61983	-133.255	12.5097	-32.5699	-155.999	16.7607	-55.7857	-132.196	61.2645	-41.6283	-131.583	42.1117	-69.5545	-138.282	18.6141	-42.6623	-154.736	67.3877	-56.4309	-153.29	35.8674	-75.1849	-164.136	19.1157	-44.0492	-175.383	64.7293	-57.2177	-178.814	37.125	-76.9911	-183.924	18.2781	-47.6655	-198.628	58.7703	-51.7638	-194.955	34.7101	-66.2111	-196.952	11.696	-44.4553	-193.325	66.5841	3.69055	-205.685	56.2402	37.2845	-170.103	54.986	28.0363	
156	1.3	-150.72	19.5939	33.2057	-132.754	14.2368	3.4884	-129.123	19.6919	-28.599	-148.429	20.5615	-53.1602	-134.763	70.7132	-36.9053	-131.086	53.4109	-62.3734	-135.232	26.7573	-39.5264	-153.728	75.9891	-52.0978	-149.953	48.4512	-72.0005	-161.285	25.9665	-39.9736	-176.134	73.1846	-55.1985	-168.962	44.3588	-71.5246	-179.392	24.5397	-45.5065	-196.655	63.4696	-43.1091	-187.681	43.8588	-62.7185	-193.163	14.9606	-45.9168	-195.593	67.8667	5.83066	-206.939	55.3222	37.1002	-171.109	57.4186	29.0352	
157	1.30833	-150.868	19.9256	40.7478	-131.904	14.2631	9.46809	-127.803	23.2206	-23.4565	-148.56	27.7398	-45.1809	-128.673	75.9886	-25.3497	-124.926	62.5878	-53.8534	-129.07	31.4793	-33.7978	-152.909	82.8861	-40.4822	-142.715	57.321	-65.6044	-157.14	32.2045	-35.3386	-174.933	78.7984	-47.8863	-165.21	53.7359	-67.0053	-175.78	30.4976	-43.0092	-195.116	69.6292	-42.4692	-183.248	50.0268	-60.0546	-184.843	23.4177	-41.3894	-198.372	71.7045	8.68889	-212.028	57.1304	38.9797	-170.13	57.1417	38.2523	
158	1.31667	-152.979	23.4902	41.1231	-129.626	18.6887	9.94524	-130.162	25.7428	-16.8569	-145.518	29.9305	-42.0194	-129.351	80.7619	-20.7761	-122.12	65.0441	-47.6946	-128.823	35.0468	-30.2529	-146.478	87.6219	-36.9439	-139.117	66.2711	-60.2197	-153.176	36.7141	-36.1944	-170.331	84.1535	-44.708	-160.393	59.5267	-63.0874	-171.798	34.3678	-44.9388	-194.215	73.7215	-39.6652	-183.236	56.0977	-59.1535	-183.94	25.841	-41.179	-198.976	69.6425	15.2181	-214.783	57.193	41.9538	-172.024	60.0955	42.0014	
159	1.325	-153.92	22.6186	45.6371	-129.542	21.4597	11.5389	-129.029	31.3607	-17.9174	-148.362	34.8902	-40.6926	-126.721	81.3768	-11.9272	-118.403	65.8034	-42.8761	-128.389	38.6423	-27.2168	-149.61	90.5914	-29.4905	-139.778	67.5577	-55.7729	-150.557	39.4083	-30.3212	-171.8	86.2077	-38.368	-157.109	63.5709	-59.1424	-167.453	37.8151	-39.5841	-191.953	76.3887	-34.0373	-178.142	60.3423	-53.1285	-175.841	31.1699	-41.5333	-200.759	72.7076	18.3032	-215.356	59.1257	43.0304	-175.793	62.2936	43.1089	
160	1.33333	-156.987	24.2329	46.7242	-131.707	23.03	14.6941	-128.694	32.3889	-16.3129	-151.396	39.8969	-40.8203	-129.692	86.3387	-12.1582	-118.924	71.4243	-39.3508	-126.405	38.2148	-21.6591	-146.122	93.7435	-27.6629	-136.914	70.9991	-50.9501	-151.501	42.1924	-25.3022	-170.276	89.3094	-32.4102	-159.736	64.8643	-58.3434	-167.399	41.485	-40.1262	-194.498	78.6278	-32.1854	-177.59	61.1165	-54.2636	-175.768	32.5933	-37.0404	-196.324	75.8752	18.9283	-213.126	57.0633	45.1258	-175.666	62.214	48.9764	
161	1.34167	-157.16	27.525	47.0406	-129.687	24.3461	13.8488	-131.029	36.453	-16.0096	-151.29	42.8765	-39.7074	-127.507	87.8988	-7.40202	-117.417	75.9496	-36.2256	-128.133	41.8693	-19.9525	-149.814	95.6538	-23.4212	-138.858	74.9826	-49.8907	-151.303	45.0964	-26.6303	-170.359	94.276	-34.1071	-155.999	72.4615	-54.5187	-167.944	43.9766	-36.9226	-194.635	81.5927	-29.8977	-176.117	69.2391	-50.3457	-176.639	37.1717	-41.9964	-199.147	77.5428	18.3188	-217.958	60.5758	41.4832	-179.763	65.7551	46.1765	
162	1.35	-157.566	30.8701	45.8132	-131.314	28.5886	12.6193	-130.25	36.4085	-15.98	-151.004	44.0812	-37.3659	-127.863	91.1949	-7.32738	-121.043	72.7731	-37.2368	-128.87	42.6488	-18.5	-148.408	99.565	-25.6701	-135.44	74.3758	-47.9755	-148.75	46.7022	-24.922	-167.433	95.6437	-34.243	-158.649	74.6487	-54.9218	-167.067	46.7917	-39.054	-193.409	85.6917	-32.4345	-178.16	69.7973	-53.7857	-177.27	36.7478	-39.1112	-201.706	78.2559	19.8298	-217.355	62.0618	42.3596	-177.813	64.8939	50.2545	
163	1.35833	-155.841	32.5353	45.1266	-133.468	29.0918	13.881	-132.866	42.2195	-19.6082	-153.433	45.4281	-39.4744	-129.832	92.0596	-9.46302	-122.279	74.4538	-37.4163	-129.775	45.3057	-20.9919	-148.436	100.813	-24.873	-140.016	80.1227	-49.2912	-148.762	49.3684	-26.5562	-172.275	97.2026	-31.8006	-157.824	78.6995	-55.0247	-164.984	48.3287	-36.9177	-193.533	85.001	-30.5452	-177.204	71.7821	-51.6695	-176.649	42.3578	-41.8908	-204.097	80.5416	20.6755	-217.082	60.8609	45.2179	-179.209	64.9257	49.8702	
164	1.36667	-157.713	34.6394	42.9349	-134.913	30.4233	11.6326	-137.449	43.1511	-18.2534	-155.75	47.6912	-41.3826	-128.977	93.7915	-11.7702	-120.659	76.1875	-37.7657	-130.859	47.5873	-22.134	-149.652	101.76	-23.221	-140.652	79.4031	-49.7658	-153.967	50.4594	-25.4856	-172.79	98.577	-33.1823	-162.317	78.6428	-57.8028	-166.148	51.1433	-40.3237	-197.696	85.6988	-32.1498	-177.141	70.643	-50.8037	-175.918	40.8992	-36.8364	-205.042	79.585	18.5915	-222.424	61.3242	43.5971	-179.54	69.7844	46.8195	
